<svg width="231" height="51" viewBox="0 0 231 51" fill="none" xmlns="http://www.w3.org/2000/svg">
<path d="M70.5829 34.9173C68.1389 34.9173 66.2025 34.2405 64.7737 32.8869C63.3449 31.5145 62.6305 29.5593 62.6305 27.0213V22.2837C62.6305 19.7457 63.3449 17.7999 64.7737 16.4463C66.2025 15.0739 68.1389 14.3877 70.5829 14.3877C73.0081 14.3877 74.8787 15.0551 76.1947 16.3899C77.5295 17.7059 78.1969 19.5201 78.1969 21.8325V22.0017H74.5309V21.7197C74.5309 20.5541 74.2019 19.5953 73.5439 18.8433C72.9047 18.0913 71.9177 17.7153 70.5829 17.7153C69.2669 17.7153 68.2329 18.1195 67.4809 18.9279C66.7289 19.7363 66.3529 20.8361 66.3529 22.2273V27.0777C66.3529 28.4501 66.7289 29.5499 67.4809 30.3771C68.2329 31.1855 69.2669 31.5897 70.5829 31.5897C71.9177 31.5897 72.9047 31.2137 73.5439 30.4617C74.2019 29.6909 74.5309 28.7321 74.5309 27.5853V27.0777H78.1969V27.4725C78.1969 29.7849 77.5295 31.6085 76.1947 32.9433C74.8787 34.2593 73.0081 34.9173 70.5829 34.9173ZM86.5879 34.9173C85.1967 34.9173 83.9465 34.6353 82.8373 34.0713C81.7281 33.5073 80.8539 32.6895 80.2147 31.6179C79.5755 30.5463 79.2559 29.2585 79.2559 27.7545V27.3033C79.2559 25.7993 79.5755 24.5115 80.2147 23.4399C80.8539 22.3683 81.7281 21.5505 82.8373 20.9865C83.9465 20.4225 85.1967 20.1405 86.5879 20.1405C87.9791 20.1405 89.2293 20.4225 90.3385 20.9865C91.4477 21.5505 92.3219 22.3683 92.9611 23.4399C93.6003 24.5115 93.9199 25.7993 93.9199 27.3033V27.7545C93.9199 29.2585 93.6003 30.5463 92.9611 31.6179C92.3219 32.6895 91.4477 33.5073 90.3385 34.0713C89.2293 34.6353 87.9791 34.9173 86.5879 34.9173ZM86.5879 31.7589C87.6783 31.7589 88.5807 31.4111 89.2951 30.7155C90.0095 30.0011 90.3667 28.9859 90.3667 27.6699V27.3879C90.3667 26.0719 90.0095 25.0661 89.2951 24.3705C88.5995 23.6561 87.6971 23.2989 86.5879 23.2989C85.4975 23.2989 84.5951 23.6561 83.8807 24.3705C83.1663 25.0661 82.8091 26.0719 82.8091 27.3879V27.6699C82.8091 28.9859 83.1663 30.0011 83.8807 30.7155C84.5951 31.4111 85.4975 31.7589 86.5879 31.7589ZM95.7897 34.5225V20.5353H99.2865V22.0581H99.7941C100.038 21.5881 100.443 21.1839 101.007 20.8455C101.571 20.4883 102.313 20.3097 103.234 20.3097C104.231 20.3097 105.03 20.5071 105.631 20.9019C106.233 21.2779 106.694 21.7761 107.013 22.3965H107.521C107.84 21.7949 108.292 21.2967 108.874 20.9019C109.457 20.5071 110.284 20.3097 111.356 20.3097C112.221 20.3097 113.001 20.4977 113.697 20.8737C114.411 21.2309 114.975 21.7855 115.389 22.5375C115.821 23.2707 116.037 24.2013 116.037 25.3293V34.5225H112.484V25.5831C112.484 24.8123 112.287 24.2389 111.892 23.8629C111.497 23.4681 110.942 23.2707 110.228 23.2707C109.42 23.2707 108.79 23.5339 108.339 24.0603C107.906 24.5679 107.69 25.3011 107.69 26.2599V34.5225H104.137V25.5831C104.137 24.8123 103.939 24.2389 103.545 23.8629C103.15 23.4681 102.595 23.2707 101.881 23.2707C101.072 23.2707 100.443 23.5339 99.9915 24.0603C99.5591 24.5679 99.3429 25.3011 99.3429 26.2599V34.5225H95.7897ZM118.449 34.5225V20.5353H121.946V22.0581H122.453C122.698 21.5881 123.102 21.1839 123.666 20.8455C124.23 20.4883 124.972 20.3097 125.894 20.3097C126.89 20.3097 127.689 20.5071 128.291 20.9019C128.892 21.2779 129.353 21.7761 129.672 22.3965H130.18C130.5 21.7949 130.951 21.2967 131.534 20.9019C132.116 20.5071 132.944 20.3097 134.015 20.3097C134.88 20.3097 135.66 20.4977 136.356 20.8737C137.07 21.2309 137.634 21.7855 138.048 22.5375C138.48 23.2707 138.696 24.2013 138.696 25.3293V34.5225H135.143V25.5831C135.143 24.8123 134.946 24.2389 134.551 23.8629C134.156 23.4681 133.602 23.2707 132.887 23.2707C132.079 23.2707 131.449 23.5339 130.998 24.0603C130.565 24.5679 130.349 25.3011 130.349 26.2599V34.5225H126.796V25.5831C126.796 24.8123 126.599 24.2389 126.204 23.8629C125.809 23.4681 125.254 23.2707 124.54 23.2707C123.732 23.2707 123.102 23.5339 122.651 24.0603C122.218 24.5679 122.002 25.3011 122.002 26.2599V34.5225H118.449ZM145.451 34.9173C144.454 34.9173 143.561 34.7481 142.772 34.4097C141.982 34.0525 141.352 33.5449 140.882 32.8869C140.431 32.2101 140.206 31.3923 140.206 30.4335C140.206 29.4747 140.431 28.6757 140.882 28.0365C141.352 27.3785 141.992 26.8897 142.8 26.5701C143.627 26.2317 144.567 26.0625 145.62 26.0625H149.455V25.2729C149.455 24.6149 149.248 24.0791 148.835 23.6655C148.421 23.2331 147.763 23.0169 146.861 23.0169C145.977 23.0169 145.319 23.2237 144.887 23.6373C144.454 24.0321 144.172 24.5491 144.041 25.1883L140.77 24.0885C140.995 23.3741 141.352 22.7255 141.841 22.1427C142.349 21.5411 143.016 21.0617 143.843 20.7045C144.689 20.3285 145.714 20.1405 146.917 20.1405C148.76 20.1405 150.217 20.6011 151.288 21.5223C152.36 22.4435 152.896 23.7783 152.896 25.5267V30.7437C152.896 31.3077 153.159 31.5897 153.685 31.5897H154.813V34.5225H152.444C151.749 34.5225 151.175 34.3533 150.724 34.0149C150.273 33.6765 150.047 33.2253 150.047 32.6613V32.6331H149.512C149.436 32.8587 149.267 33.1595 149.004 33.5355C148.741 33.8927 148.327 34.2123 147.763 34.4943C147.199 34.7763 146.428 34.9173 145.451 34.9173ZM146.071 32.0409C147.068 32.0409 147.876 31.7683 148.496 31.2231C149.136 30.6591 149.455 29.9165 149.455 28.9953V28.7133H145.874C145.216 28.7133 144.699 28.8543 144.323 29.1363C143.947 29.4183 143.759 29.8131 143.759 30.3207C143.759 30.8283 143.956 31.2419 144.351 31.5615C144.746 31.8811 145.319 32.0409 146.071 32.0409ZM156.001 34.5225V20.5353H159.498V22.3683H160.006C160.231 21.8795 160.654 21.4189 161.274 20.9865C161.895 20.5353 162.835 20.3097 164.095 20.3097C165.185 20.3097 166.134 20.5635 166.943 21.0711C167.77 21.5599 168.409 22.2461 168.86 23.1297C169.312 23.9945 169.537 25.0097 169.537 26.1753V34.5225H165.984V26.4573C165.984 25.4045 165.721 24.6149 165.194 24.0885C164.687 23.5621 163.954 23.2989 162.995 23.2989C161.904 23.2989 161.058 23.6655 160.457 24.3987C159.855 25.1131 159.554 26.1189 159.554 27.4161V34.5225H156.001ZM177.608 34.9173C176.499 34.9173 175.456 34.6447 174.478 34.0995C173.519 33.5355 172.748 32.7177 172.166 31.6461C171.583 30.5745 171.291 29.2773 171.291 27.7545V27.3033C171.291 25.7805 171.583 24.4833 172.166 23.4117C172.748 22.3401 173.519 21.5317 174.478 20.9865C175.437 20.4225 176.48 20.1405 177.608 20.1405C178.454 20.1405 179.159 20.2439 179.723 20.4507C180.306 20.6387 180.776 20.8831 181.133 21.1839C181.49 21.4847 181.763 21.8043 181.951 22.1427H182.459V14.7825H186.012V34.5225H182.515V32.8305H182.007C181.688 33.3569 181.19 33.8363 180.513 34.2687C179.855 34.7011 178.887 34.9173 177.608 34.9173ZM178.68 31.8153C179.77 31.8153 180.682 31.4675 181.415 30.7719C182.148 30.0575 182.515 29.0235 182.515 27.6699V27.3879C182.515 26.0343 182.148 25.0097 181.415 24.3141C180.701 23.5997 179.789 23.2425 178.68 23.2425C177.589 23.2425 176.678 23.5997 175.944 24.3141C175.211 25.0097 174.845 26.0343 174.845 27.3879V27.6699C174.845 29.0235 175.211 30.0575 175.944 30.7719C176.678 31.4675 177.589 31.8153 178.68 31.8153Z" fill="black"/>
<path d="M187.864 34.5225V31.2513H190.459V18.0537H187.864V14.7825H198.016C199.22 14.7825 200.263 14.9893 201.147 15.4029C202.049 15.7977 202.745 16.3711 203.233 17.1231C203.741 17.8563 203.995 18.7399 203.995 19.7739V20.0559C203.995 20.9583 203.826 21.7009 203.487 22.2837C203.149 22.8477 202.745 23.2895 202.275 23.6091C201.823 23.9099 201.391 24.1261 200.977 24.2577V24.7653C201.391 24.8781 201.842 25.0943 202.331 25.4139C202.82 25.7147 203.233 26.1565 203.572 26.7393C203.929 27.3221 204.108 28.0835 204.108 29.0235V29.3055C204.108 30.3959 203.854 31.3359 203.346 32.1255C202.839 32.8963 202.134 33.4885 201.231 33.9021C200.348 34.3157 199.314 34.5225 198.129 34.5225H187.864ZM194.181 31.1385H197.678C198.486 31.1385 199.135 30.9411 199.624 30.5463C200.131 30.1515 200.385 29.5875 200.385 28.8543V28.5723C200.385 27.8391 200.141 27.2751 199.652 26.8803C199.163 26.4855 198.505 26.2881 197.678 26.2881H194.181V31.1385ZM194.181 22.9041H197.622C198.392 22.9041 199.022 22.7067 199.511 22.3119C200.019 21.9171 200.272 21.3719 200.272 20.6763V20.3943C200.272 19.6799 200.028 19.1347 199.539 18.7587C199.05 18.3639 198.411 18.1665 197.622 18.1665H194.181V22.9041ZM210.201 34.9173C209.204 34.9173 208.311 34.7481 207.522 34.4097C206.732 34.0525 206.102 33.5449 205.632 32.8869C205.181 32.2101 204.955 31.3923 204.955 30.4335C204.955 29.4747 205.181 28.6757 205.632 28.0365C206.102 27.3785 206.741 26.8897 207.55 26.5701C208.377 26.2317 209.317 26.0625 210.37 26.0625H214.205V25.2729C214.205 24.6149 213.998 24.0791 213.585 23.6655C213.171 23.2331 212.513 23.0169 211.611 23.0169C210.727 23.0169 210.069 23.2237 209.637 23.6373C209.204 24.0321 208.922 24.5491 208.791 25.1883L205.519 24.0885C205.745 23.3741 206.102 22.7255 206.591 22.1427C207.099 21.5411 207.766 21.0617 208.593 20.7045C209.439 20.3285 210.464 20.1405 211.667 20.1405C213.509 20.1405 214.966 20.6011 216.038 21.5223C217.11 22.4435 217.645 23.7783 217.645 25.5267V30.7437C217.645 31.3077 217.909 31.5897 218.435 31.5897H219.563V34.5225H217.194C216.499 34.5225 215.925 34.3533 215.474 34.0149C215.023 33.6765 214.797 33.2253 214.797 32.6613V32.6331H214.261C214.186 32.8587 214.017 33.1595 213.754 33.5355C213.491 33.8927 213.077 34.2123 212.513 34.4943C211.949 34.7763 211.178 34.9173 210.201 34.9173ZM210.821 32.0409C211.817 32.0409 212.626 31.7683 213.246 31.2231C213.885 30.6591 214.205 29.9165 214.205 28.9953V28.7133H210.624C209.966 28.7133 209.449 28.8543 209.073 29.1363C208.697 29.4183 208.509 29.8131 208.509 30.3207C208.509 30.8283 208.706 31.2419 209.101 31.5615C209.496 31.8811 210.069 32.0409 210.821 32.0409ZM220.751 34.5225V20.5353H224.248V22.1145H224.755C224.962 21.5505 225.301 21.1369 225.771 20.8737C226.259 20.6105 226.823 20.4789 227.463 20.4789H229.155V23.6373H227.406C226.504 23.6373 225.761 23.8817 225.178 24.3705C224.596 24.8405 224.304 25.5737 224.304 26.5701V34.5225H220.751Z" fill="#3F27D2"/>
<g filter="url(#filter0_ddii)">
<g clip-path="url(#clip0)">
<rect x="2" y="1" width="47" height="47" rx="10.81" fill="white"/>
<rect x="2" y="1" width="47" height="47" rx="10.81" fill="url(#paint0_linear)"/>
<g filter="url(#filter1_ddii)">
<path d="M33.9794 19.8367C34.1242 20.2673 33.8613 20.7194 33.4225 20.8369L30.5488 21.607C30.0474 21.7413 29.5368 21.4411 29.3475 20.9577C28.7359 19.3968 27.6692 18.0466 26.2759 17.089C24.6232 15.9531 22.6195 15.4443 20.6251 15.6539C18.6307 15.8635 16.7765 16.7779 15.3961 18.2325C14.0156 19.6872 13.1996 21.5867 13.0946 23.5893C12.9896 25.592 13.6027 27.5663 14.8235 29.1573C16.0443 30.7483 17.7928 31.8515 19.7543 32.2685C21.7159 32.6854 23.7619 32.3887 25.5243 31.4319C27.01 30.6252 28.212 29.3938 28.9833 27.9054C29.2222 27.4445 29.7613 27.1993 30.246 27.3853L32.9138 28.4094C32.9219 28.4125 32.9299 28.4157 32.9379 28.419L44.2888 32.7762C44.7735 32.9623 45.0156 33.506 44.8295 33.9906L43.8189 36.6233C43.6329 37.108 43.0891 37.3501 42.6045 37.164L34.5967 34.0901C33.8834 33.8163 33.0969 33.5065 32.5504 32.9601C32.2717 32.6814 31.9286 32.2447 31.8583 32.1543C30.7579 33.5566 29.3754 34.7317 27.7848 35.5953C25.0311 37.0905 21.8343 37.554 18.7693 36.9025C15.7044 36.251 12.9724 34.5273 11.0649 32.0414C9.15742 29.5555 8.19951 26.4705 8.36351 23.3414C8.5275 20.2122 9.80263 17.2443 11.9595 14.9714C14.1165 12.6985 17.0136 11.2698 20.1299 10.9422C23.2461 10.6147 26.377 11.4098 28.9593 13.1846C31.3151 14.8037 33.0733 17.1412 33.9794 19.8367Z" fill="white"/>
</g>
</g>
</g>
<defs>
<filter id="filter0_ddii" x="0.12" y="0.06" width="50.76" height="50.76" filterUnits="userSpaceOnUse" color-interpolation-filters="sRGB">
<feFlood flood-opacity="0" result="BackgroundImageFix"/>
<feColorMatrix in="SourceAlpha" type="matrix" values="0 0 0 0 0 0 0 0 0 0 0 0 0 0 0 0 0 0 127 0"/>
<feOffset dy="0.235"/>
<feGaussianBlur stdDeviation="0.47"/>
<feColorMatrix type="matrix" values="0 0 0 0 0.184461 0 0 0 0 0.075625 0 0 0 0 0.504167 0 0 0 0.2 0"/>
<feBlend mode="normal" in2="BackgroundImageFix" result="effect1_dropShadow"/>
<feColorMatrix in="SourceAlpha" type="matrix" values="0 0 0 0 0 0 0 0 0 0 0 0 0 0 0 0 0 0 127 0"/>
<feOffset dy="0.94"/>
<feGaussianBlur stdDeviation="0.94"/>
<feColorMatrix type="matrix" values="0 0 0 0 0.184314 0 0 0 0 0.0745098 0 0 0 0 0.505882 0 0 0 0.1 0"/>
<feBlend mode="normal" in2="effect1_dropShadow" result="effect2_dropShadow"/>
<feBlend mode="normal" in="SourceGraphic" in2="effect2_dropShadow" result="shape"/>
<feColorMatrix in="SourceAlpha" type="matrix" values="0 0 0 0 0 0 0 0 0 0 0 0 0 0 0 0 0 0 127 0" result="hardAlpha"/>
<feOffset dy="-0.47"/>
<feGaussianBlur stdDeviation="0.47"/>
<feComposite in2="hardAlpha" operator="arithmetic" k2="-1" k3="1"/>
<feColorMatrix type="matrix" values="0 0 0 0 0.649702 0 0 0 0 0.554167 0 0 0 0 1 0 0 0 0.5 0"/>
<feBlend mode="normal" in2="shape" result="effect3_innerShadow"/>
<feColorMatrix in="SourceAlpha" type="matrix" values="0 0 0 0 0 0 0 0 0 0 0 0 0 0 0 0 0 0 127 0" result="hardAlpha"/>
<feOffset dx="0.47" dy="-0.94"/>
<feGaussianBlur stdDeviation="1.41"/>
<feComposite in2="hardAlpha" operator="arithmetic" k2="-1" k3="1"/>
<feColorMatrix type="matrix" values="0 0 0 0 0.281511 0 0 0 0 0.182083 0 0 0 0 0.633333 0 0 0 0.06 0"/>
<feBlend mode="normal" in2="effect3_innerShadow" result="effect4_innerShadow"/>
</filter>
<filter id="filter1_ddii" x="5.88293" y="10.0493" width="41.4718" height="31.2817" filterUnits="userSpaceOnUse" color-interpolation-filters="sRGB">
<feFlood flood-opacity="0" result="BackgroundImageFix"/>
<feColorMatrix in="SourceAlpha" type="matrix" values="0 0 0 0 0 0 0 0 0 0 0 0 0 0 0 0 0 0 127 0"/>
<feOffset dy="0.205211"/>
<feGaussianBlur stdDeviation="0.205211"/>
<feColorMatrix type="matrix" values="0 0 0 0 0.184314 0 0 0 0 0.0745098 0 0 0 0 0.505882 0 0 0 0.1 0"/>
<feBlend mode="normal" in2="BackgroundImageFix" result="effect1_dropShadow"/>
<feColorMatrix in="SourceAlpha" type="matrix" values="0 0 0 0 0 0 0 0 0 0 0 0 0 0 0 0 0 0 127 0"/>
<feOffset dy="1.64169"/>
<feGaussianBlur stdDeviation="1.23127"/>
<feColorMatrix type="matrix" values="0 0 0 0 0.0312771 0 0 0 0 0.00496528 0 0 0 0 0.108333 0 0 0 0.15 0"/>
<feBlend mode="normal" in2="effect1_dropShadow" result="effect2_dropShadow"/>
<feBlend mode="normal" in="SourceGraphic" in2="effect2_dropShadow" result="shape"/>
<feColorMatrix in="SourceAlpha" type="matrix" values="0 0 0 0 0 0 0 0 0 0 0 0 0 0 0 0 0 0 127 0" result="hardAlpha"/>
<feOffset dy="-0.205211"/>
<feGaussianBlur stdDeviation="0.102605"/>
<feComposite in2="hardAlpha" operator="arithmetic" k2="-1" k3="1"/>
<feColorMatrix type="matrix" values="0 0 0 0 0.0853918 0 0 0 0 0.0176042 0 0 0 0 0.307396 0 0 0 0.1 0"/>
<feBlend mode="normal" in2="shape" result="effect3_innerShadow"/>
<feColorMatrix in="SourceAlpha" type="matrix" values="0 0 0 0 0 0 0 0 0 0 0 0 0 0 0 0 0 0 127 0" result="hardAlpha"/>
<feOffset dx="0.205211" dy="-0.205211"/>
<feGaussianBlur stdDeviation="0.205211"/>
<feComposite in2="hardAlpha" operator="arithmetic" k2="-1" k3="1"/>
<feColorMatrix type="matrix" values="0 0 0 0 0.0862745 0 0 0 0 0.0156863 0 0 0 0 0.305882 0 0 0 0.25 0"/>
<feBlend mode="normal" in2="effect3_innerShadow" result="effect4_innerShadow"/>
</filter>
<linearGradient id="paint0_linear" x1="46.879" y1="47.9347" x2="-7.4543" y2="18.3819" gradientUnits="userSpaceOnUse">
<stop stop-color="#4317AA"/>
<stop offset="1" stop-color="#3F27D2"/>
</linearGradient>
<clipPath id="clip0">
<rect x="2" y="1" width="47" height="47" rx="10.81" fill="white"/>
</clipPath>
</defs>
</svg>
